<svg id="Слой_1" xmlns="http://www.w3.org/2000/svg" viewBox="0 0 300 300"><style>.st0,.st1,.st2{fill:#fff;stroke:#000;stroke-miterlimit:10}.st1,.st2{fill:none}.st2{opacity:.2}.st3{fill:#bf00b0}.st4{fill:#ff00f9}.st5{fill:#feff2a}</style><path class="st0" d="M140.6 145.8l-36.7 72.1m36.7-44.1l-11.7 23.7 11.7-23.7zm10.1 23.7H137h13.7zm25.9 20.4l-36-72.1"/><path class="st1" d="M175.8 145.5l29.5 70.5m29.6-70.5L206.2 216m-94.3-70.2H67m0 72.5v-72.5m9.1 36.3h27.2M76.1 205v12.9m7-27.2h13.2m15.6-42.4v7.2m-13.5 0h13.5m9.8 55.9l-3.3 6.4m49.3-71.2l28.7 70.1"/><path d="M57.1 260.2h-.9c-.2 0-.4 0-.5-.1-.1-.1-.3-.2-.4-.4l-10.7-12.6-.6-.6c-.2-.2-.4-.3-.6-.5-.2-.1-.5-.2-.8-.3-.3-.1-.7-.1-1.1-.1h-4v14.6h-1.2v-29.5h1.2v14h3.6c.4 0 .7 0 1-.1.3 0 .6-.1.9-.2.3-.1.5-.3.8-.5l.8-.8 10.1-12c.2-.3.5-.4.8-.4h.9l-10.7 12.7c-.4.4-.7.8-1.1 1.1-.4.3-.9.5-1.4.6.6.1 1.1.3 1.5.6.4.3.8.7 1.1 1.1l11.3 13.4zm29.6-14.7c0 2.3-.3 4.4-1 6.2-.7 1.9-1.6 3.4-2.8 4.7-1.2 1.3-2.7 2.3-4.4 3s-3.6 1-5.6 1c-2 0-3.9-.3-5.6-1s-3.1-1.7-4.4-3c-1.2-1.3-2.2-2.9-2.8-4.7-.7-1.9-1-3.9-1-6.2 0-2.3.3-4.4 1-6.2.7-1.9 1.6-3.4 2.8-4.8 1.2-1.3 2.7-2.3 4.4-3s3.6-1.1 5.6-1.1c2.1 0 3.9.4 5.6 1.1s3.2 1.7 4.4 3c1.2 1.3 2.2 2.9 2.8 4.8s1 3.9 1 6.2zm-1.2 0c0-2.2-.3-4.2-.9-5.9-.6-1.7-1.5-3.2-2.6-4.4-1.1-1.2-2.4-2.1-4-2.8-1.5-.6-3.3-1-5.1-1-1.8 0-3.5.3-5.1 1-1.5.6-2.9 1.6-4 2.8-1.1 1.2-2 2.7-2.6 4.4-.6 1.7-.9 3.7-.9 5.9s.3 4.2.9 5.9 1.5 3.2 2.6 4.4c1.1 1.2 2.4 2.1 4 2.8 1.5.6 3.2 1 5.1 1 1.9 0 3.6-.3 5.1-1 1.5-.6 2.9-1.6 4-2.8 1.1-1.2 2-2.7 2.6-4.4s.9-3.7.9-5.9zm37.1-14.8v29.5h-1v-27.6l-12.4 21.7c-.1.2-.3.4-.5.4h-.2c-.2 0-.4-.1-.5-.4l-12.8-21.8v27.7h-1v-29.5h.8c.1 0 .2 0 .3.1.1 0 .1.1.2.2l12.8 21.8c.1.3.2.5.4.8.1-.1.1-.3.2-.4.1-.1.1-.3.2-.4l12.4-21.7c.1-.1.1-.2.2-.2s.2-.1.3-.1h.6zm30.3 29.5h-1.2v-28.6h-18.4v28.6h-1.2v-29.5h20.7v29.5zm29.3 0H181v-28.6h-13c-.2 4-.4 7.4-.7 10.4s-.6 5.5-1 7.6c-.4 2.1-.9 3.9-1.4 5.3-.5 1.4-1.1 2.5-1.7 3.3-.6.8-1.3 1.4-2 1.7s-1.5.5-2.3.5h-.5c-.2 0-.3 0-.4-.1-.1 0-.2-.1-.3-.1s-.1-.1-.1-.1v-.7h1.2c.7 0 1.4-.2 2-.5.6-.3 1.2-.9 1.8-1.7.6-.8 1.1-1.9 1.5-3.3.5-1.4.9-3.1 1.3-5.3s.7-4.7 1-7.6.5-6.4.7-10.4h15.2v29.6zm27.1-.9v1h-17.4v-29.5h17.4v1H193v13.1h13.7v1H193v13.5h16.3zm27.9.9h-.9c-.2 0-.4 0-.5-.1s-.3-.2-.4-.4l-10.7-12.6-.6-.6c-.2-.2-.4-.3-.6-.5-.2-.1-.5-.2-.8-.3-.3-.1-.7-.1-1.1-.1h-4v14.6h-1.2v-29.5h1.2v14h3.6c.4 0 .7 0 1-.1s.6-.1.9-.2c.3-.1.5-.3.8-.5l.8-.8 10.1-12c.2-.3.5-.4.8-.4h.9l-10.7 12.7c-.4.4-.7.8-1.1 1.1-.4.3-.9.5-1.4.6.6.1 1.1.3 1.5.6.4.3.8.7 1.1 1.1l11.3 13.4zm24.4-28.5h-10.8v28.5h-1.2v-28.5h-10.9v-1h22.8v1z"/><path class="st2" d="M14 122.4h.4"/><path class="st1" d="M74.4 165.2l3.3-5.7m153.9 14.8L215.2 216"/><path class="st0" d="M141.1 173.8l11.7 23.7-11.7-23.7z"/><path class="st1" d="M221.6 158.9l-5.5 13.5m-3 7.7l-6 14.8"/><g id="XMLID_1_"><path d="M229.8 54.3zm0 0c0 .1 0 .1 0 0zm0 0c0 .1 0 .1 0 0 0 .1 0 0 0 0zm-7 1.8s-.1-.1 0 0c.5-.6 6.1-2 7-1.7l-1.3.5c-1.3 0-5.1 1.2-5.7 1.2zm7-1.7c-.6.9-9.2 12.3-9.8 13.2l.3-.6c3.9-5.2 7.2-9.6 7.3-9.8 1.1-1.5 2-2.5 2.2-2.8z"/><path class="st3" d="M228.5 54.9l1.3-.5c-.2.3-1.1 1.4-2.2 2.8-.1.1-1.6 2-3.6 4.6l-1.2-.1c.2-.3.2-.4-.2-.2-1.3.7-.2-3.8.2-5.3.6-.1 4.4-1.3 5.7-1.3z"/><path d="M224 61.7c2-2.6 3.5-4.5 3.6-4.6-2.5 3.2-6.3 8.1-6.5 8.4l-.8 1.4c-5.3 7.1-11.7 15.6-12.4 16.7-3.8 5.7-5.6 9.5-5.3 10.9.2.7-.1 2.2-.5 3.3-.7 1.7-.7 2.7-.2 6.4l.6 4.3-2.2 2.5c-2.6 3-4.5 7-5.4 11.4-.6 3.1-.7 3.2-2 2.8-20.8-5.6-44.5-6.6-66.2-2.9-3.6.6-8.5 1.6-10.9 2.2-5.2 1.3-4.8 1.2-5 .4-.1-.4-.6-2.4-1-4.4-.9-3.9-3.6-8.9-5.7-10.6-1.3-1-1.3-1-.6-5.5.6-3.9.6-4.8-.1-6.5-.4-1.1-.7-2.5-.5-3.2.4-1.5-2.4-6.8-7-13.8-4.1-6.2-11.1-14-17.7-21.2-.9-.9-1.4-1.5-1.6-1.7h.1c.8.8 4.5 4.6 8.7 8.9 4.5 4.7 8.9 9.4 9.7 10.5.8 1.1 1.7 2 2 1.9 1.2-.4 3 .9 4.5 3.4.9 1.5 2.4 3.3 3.4 4l1.8 1.3-1 1.5c-.6.8-1 1.8-.8 2.2.1.4.8-.5 1.6-1.8 2.5-4.4 2.3-4.3 4.3-1.9 1 1.2 2 2 2.2 1.8.2-.2-.6-1.5-1.8-2.7-1.2-1.3-2.2-2.8-2.3-3.4-.1-.6-3-3.2-7-6.1-9.3-7-23.8-19.4-17.9-15.3 1.5 1 1.7.4.5-1.6-.5-.7-1.3-1.3-1.9-1.3-.1-.1-.3-.2-.7-.4.9-.9 2.8.6 4 3.2 1.5 3.3 5.2 6.7 14.9 13.9 6.1 4.5 7.7 5.4 7.7 4 0-.4-1.3-5.1-2.8-10.5-1.1-3.9-3-9.5-3.3-10.8.1 0 .1 0 .1-.1.1.2.3.5.5 1 .3 0 6.1 15 6.1 15.6 0 .2-.3 0-.6-.4-.8-1.3-.2 1.4 1.7 6.8.9 2.5 2.2 5.2 2.9 5.9l1.3 1.3-.3-1.8c-.3-1.4-.1-1.9.5-2.3 1.3-.7 1.1-2.1-1.5-10-1.2-3.9-2.2-7.2-2.1-7.3s1.9 2.2 4.2 5c4.3 5.5 7.6 8.8 8.1 8.3.2-.2 0-.6-.4-1-1.2-.9-7.8-8.9-10.9-13-3.9-5.3-9.4-13.6-8.2-12.5.6.5 1.3 1 1.6 1 .2 0 .3.1.4.3.1.7.1 1.1.2.8 0 2.5 16 23 17.9 23 .2 0 .4 0 .6.1-.2.6-.1.7.2.1.3.2.2.6-.2 1.2-.4.7-6.9 6.3-8.6 7.6-.7.5-1 1-.8 1.3.2.2.6.1 1-.2.3-.3.8-.5 1.2-.4.3.1 1.9-1 3.5-2.4l2.9-2.7 2.6 2.2c3.4 2.8 3.7 1.8.4-1.3-2.3-2.3-2.4-2.5-1.7-3.3.5-.5 1-1.6 1.2-2.5.2-.9.5-1.7.8-1.7.2 0 1 1.7 1.6 3.7.6 2 1.5 4.4 1.9 5.2.8 1.6 1.6 2 1.6.8.4-9 .9-15.6 1.2-16.2.2-.3.4.1.6.9.1.4.2.9.4 1.5 1.4 7.4 2.2 8.7 3.9 6.1.7-1.1.7-1.4-.5-3.8-.5-1-.8-1.8-1-2.3l.1.1c.1.1.1-.2 0-.6.2.3.5.8 1 1.6.7 1.3 1.7 2.3 2 2.3.6 0 4.4-4.9 6.3-8.2.3-.5.8-2.7 1.2-5l.8-5.5c0 .2 0 .4.1.5l-.5 6.1c-.2 3.5-.7 6.5-1.6 9.2-.7 2.2-1.2 4.8-1.1 5.6.2 1.5.2 1.6-.9.8-1.6-1.1-1.6-3.1.2-6.5.9-1.7 1.4-3.1 1.2-3.1-.6 0-5 7.1-4.8 7.7.2.6 6.7 6.6 7.1 6.6.2 0 .2-.4 0-.8-.5-1.5 0-.9 2 2.3 1.1 1.7 1.7 2.9 1.4 2.7-.3-.2-1.7.9-3.2 2.4l-2.7 2.7.3 3.7c.7 8.3.6 8.2 2.9 9.2 1.1.5 2.6 1.6 3.2 2.3l1.2 1.3 1.7-1.5c.9-.8 2.4-1.9 3.3-2.4 1.8-1 2.3-2.8 2.3-9.4v-4.2l-2.1-1.4c-1.1-.8-2.2-1.8-2.4-2.2-.2-.5-.6-.6-1-.4-.6.4.1-1 2.6-4.7 1-1.5 1.2-1.6.9-.6-.4 1.3-.3 1.3 1.7-.4 1.1-.9 2.8-2.6 3.8-3.6l1.8-1.9-2.4-3.5c-1.3-1.9-2.4-3.7-2.4-3.9 0-.2-.2-.4-.5-.4s-.5.5-.5 1.1c0 .6-.2 1.2-.4 1.3-.2.2-1.2-6.1-2.2-13.8-1-7.7-1.9-14.9-2.2-15.9-.4-1.6-.2-2.2 1.1-4.2.6-.8 1-1.5 1.3-1.9-.2.4-.3.7-.3.7.1 0 .4-.4.7-.9-.1.3-.5.9-1 1.7l-1.3 2 1.9 13.7 1.9 13.7 3 4.4c1.6 2.4 3.4 4.5 3.8 4.6.6.1 1.2-.6 1.9-2.1.5-1 1.3-2.7 1.6-3.2v.1c0 .1 0 .2.1.2-.2 1-1.1 3.4-2 5.1-.8 1.6-.8 1.8.6 4.2 1.8 3.2 4.9 6.8 5.8 6.8.9 0 4.5-3.4 6-5.5 1-1.4 1-1.5-.2-4.9-.7-1.9-1.1-3.4-1.3-3.2.4-.2-1.6-3.6-1.8-6.9.1-.2.4-1.4.7-3.3l1.6 6.5c.7 5.2 1.5 8.7 2.9 8.9 1.3.2 6.2-5.6 13-15l4.3-6.1.4-4.9c.2-2.2.3-3.4.4-3.7h.1c.1.1.1.4.2 1 .3 2 .4 2.2 1.8 2.1l1.5-.1-1.9 2.8c-1.1 1.5-1.7 2.9-1.4 3 .1 0 .1.1 0 .3-.3.8-1.7 3-3.6 5.4-4.1 5.5-7.2 11-8.6 15l-.7 2-.3-2.3c-.6-3.6-1.6-2.9-1.3 1l.2 3.3-1.5-1.5c-1.7-1.7-2.7-1.3-1.2.4 1.4 1.7 7.6 6.5 8.3 6.5 1.2 0 3.5-3.3 4.5-6.4.4-1.4.8-2.4 1-2.4 0 .1 0 .2.1.1 0 1.4 1.2 1.2 3.8-.8 1.3-1 3.4-2.5 4.7-3.4 1.3-.9 4.6-3.6 7.4-5.8 3.8-3.2 5.4-4.9 6.7-7.4.9-1.6 2.9-5.9 3.1-6.2-.5 1.5-1.5 6-.2 5.3.4-.2.4-.1.2.2-1.4 1.8-13.2 11.7-20.2 16.8-3.1 2.3-5.6 4.5-5.9 5.3-.4 1-.2 1.9.8 4 1.6 3.4 2.7 4.2 1.3 1-1.1-2.4-1.5-6.4-.5-4.8.4.7 1.1.2 3.8-2.5 1.8-1.8 4.7-4.5 6.4-6l3.1-2.7-3.4 4.2c-4.4 5.5-6.8 10.2-6.8 13.6 0 2.2.1 2.4.7 1.5 4.4-7.1 7.4-11.7 8.1-12.4.3-.8 8.6-11.6 13.6-18.1zm-22.6 36.5c.9-1.8.6-2.6-1.3-3.9-1.8-1.1-1.9-1.2-2.8-.3-.7.8-.8 1.1-.2 2 .9 1.5.8 1.6-.9.9-.9-.4-1.5-.9-1.3-1.3.1-.4-.1-.9-.6-1.2-.8-.5-.8-.6.3-.6 1.9 0 1.4-1.6-.8-2.2-4-1.1-11.6-2.2-19-2.8-8.6-.6-17.9-.7-17.9-.2 0 1.2 2.2 1.8 6.6 1.9 2.6 0 6.3.3 8.1.5 2.3.3.9.3-3.8.2-4-.2-7.2-.2-7.2 0s.2.9.5 1.7c.5 1.3.7 1.4 4.1 1.4 8.2 0 24.7 2 30.8 3.7.2.1.4.1.5.2 4.1 1.2 4.3 1.2 4.9 0zm-2.3 13.3l1.8-2.3-1.6-.3c-.9-.2-2.4-.3-3.4-.3-1.5 0-1.9.3-2.3 1.5-.3.8-.4 2.3-.3 3.3.2 1.6.1 1.8-.9 1.7-1-.2-1.1-.5-1.1-3.7v-3.6l-5.3-.6c-2.9-.4-9.6-.8-14.8-1-9.5-.4-9.6-.4-12.3 1-2.7 1.3-5.7 3.9-5.7 4.9 0 .3-.7-.4-1.6-1.5-.9-1.1-2.9-2.6-4.5-3.4-2.9-1.4-3-1.4-12.1-1.1-9.2.3-28.4 2.4-28.4 3.1 0 .2 1.4.3 3 .2 2.8-.2 2.9-.2 1.8.6-1.9 1.2-.7 1.4 3.4.6 4.9-1 13.5-1.8 23.1-2.2 7.1-.3 8.1-.2 9.7.7 1 .6 1.9 1.3 2 1.6.1.3-3.8.7-10.7.9-16.3.6-27.8 2.2-28.4 4-.3.9.8.8 8.5-.2 3.4-.4 9.6-.9 13.7-1.1 5.4-.2 6.7-.2 4.7 0-.6.1-1.5.1-2.6.2-6.1.5-17.1 2.1-17.4 2.4-.1.1-.1.5.1.8.2.4 2.6.5 7.5.3 8.5-.4 8.3.1-.7 2.2-8.4 1.9-11.7 2.9-12.1 3.7-.3.4.1.5 1.2.2.8-.2 4.4-1 7.9-1.7 8.2-1.7 14.2-2.5 21.3-2.9 3.2-.2 6.7-.3 10.7-.3 14.8 0 27 1.5 39.8 4.9 1.3.3 1.4.2 1.4-1.1 0-.8-.3-1.4-.6-1.5-1.4-.1-11.1-2.6-10.2-2.7.5 0 3.2.3 6 .8 4.2.8 5.1.8 5.4.1.8-1.3.5-2-.7-2.3-2.4-.6-16.6-2.6-21.7-3-5-.4-5.1-.5-1.6-.5 3.1-.1 7 .3 21.6 1.8.3 0 .6.1.8.1 2.7.3 3 .2 3.6-1 0-.4 1-2 2-3.3zm-4.8-4.4c7.4 1.2 6.8 1.5 6.3-2.8-.2-2-.6-3.9-1-4.1-1-.7-4.3-.5-5.3.3s-1.3 2.8-.6 4.4c.3.8.1 1-1 1h-.7c-.5-.1-.5-.4-.1-1.4.2-.5.3-1.3.4-2.3.2-2.1.1-4.6-.3-4.6-.2 0-3.2-.4-6.7-.8-1.1-.1-2.6-.3-4.3-.4-2.6-.2-5.7-.5-8.5-.6-.9-.1-1.7-.1-2.5-.1l-4.7-.2-4.4-.2v3c0 .6 0 1.2-.1 1.8-.1 1.2-.2 2.3-.3 2.9l-.3 1.7h6.8c1.6 0 3.4.1 5.4.2 2.5.1 5.2.3 8 .6 2.5.2 5.1.5 7.6.8 1.4.2 2.7.4 3.9.5.9.1 1.7.2 2.4.3zm4.4-15.3c.1-.1-.3-1.1-1-2.2-1.1-1.9-1.2-1.9-2.2-1-.5.5-1 1.1-1 1.3.1.5 3.9 2.2 4.2 1.9zm-4.2-3.5c2-2.8.9-2.7-1.5.2-.9 1.1-1.1 1.5-.5 1.5.5-.1 1.4-.8 2-1.7zm-5.9.7c2.3.6 2.5.3.8-1.1-6.1-5.1-7.4-6.1-7.8-6.1-.2 0-1.6 1.2-2.9 2.7-3.1 3.3-2.4 4.3.9 1.2l2.3-2.2 2.9 2.7c1.4 1.3 3.2 2.6 3.8 2.8zm-4-.8c1.2.1 1.2 0-.8-1.8l-2.1-1.9-1.2 1.4c-.7.8-1.2 1.5-1.2 1.6.1.2 2.6.5 5.3.7zm-13.8-1c1.2 0 1.2 0-.4-2.4-.9-1.3-2.3-3.2-3.1-4.2l-1.4-1.8-4.5 4c-2.5 2.2-4.5 4.1-4.5 4.2s.6.2 1.3.2c.8 0 2.4-1.1 4.5-3.1l3.2-3.1 1 1.3c.6.7 1.4 2.1 2 3.1.4 1.2 1.1 1.8 1.9 1.8zm-6 0c1.9 0 3.5-.2 3.5-.3 0-.6-2.2-4-2.6-4-.2 0-1.3 1-2.4 2.2l-2.1 2.2h3.6zm-17.6 0c.7 0 1.2-.2 1.2-.4 0-.5-8.2-7.8-8.8-7.8-.4 0-5.4 6.7-5.9 7.8-.1.2.3.4.9.3.6-.1 1.9-1.2 3-2.6 1.1-1.4 2-2.6 2.1-2.7s1.5 1.1 3.2 2.6c1.8 1.6 3.6 2.8 4.3 2.8zm-1.2 3.9c1.2-1 1.1-1.6-.3-1.4-.6.1-4.6.3-8.8.4l-7.6.2 4.1-.7c2.3-.4 4.3-.9 4.5-1.1.2-.2-3.2-.2-7.5 0-8 .3-13.2 1.2-17.7 2.8-2.7 1-6.3 3-6 3.4.1.1 2-.4 4.2-1.1 2.2-.7 5.1-1.5 6.5-1.7l2.5-.3-2.9 1c-4.1 1.4-6.3 2.7-6.3 3.7 0 .7.2.7 1.1.2.6-.3 1.4-.5 1.9-.3.4.2 3.4 0 6.7-.5 3.2-.4 9.5-1 13.9-1.2 5.6-.3 8-.6 7.8-1-.1-.4-2.5-.6-7.8-.5-5 .1-6.9-.1-5.7-.4 2.3-.6 11.4-1.6 13.9-1.6 1.8 0 1.8.1 1.4 1.3-.3.9-.3 1.5 0 1.7.3.2.7-.3 1-1 0-.6.6-1.5 1.1-1.9zm-2.5 9c.1-1.2 0-2.7-.1-3.4-.3-1.3-.4-1.3-6.3-1.3-11.2 0-28.8 2.6-30.4 4.5-.4.5-.3.5.4.3.9-.3.9-.3.1 1-1 1.6-.6 4.5.7 4.8.7.2.7.3-.2.3-.6 0-1.4.3-1.8.7-.8.6-.1.6 13.4-.9 4.1-.4 11.4-1 16.3-1.2 5.9-.3 8-.5 6-.7l-2.9-.3 2.4-.9c2.1-.8 2.3-1 2.4-2.9zm-3-12.9c1.7 0 3.1-.2 3.1-.4 0-.5-3.1-4-3.6-4-.4 0-2.7 3.6-2.7 4.1 0 .2 1.5.3 3.2.3zm-14.4.3s-.5-.8-1.1-1.6c-1-1.3-1.3-1.5-2.2-.9-.6.4-1.4 1.3-2 2l-1 1.4 3.2-.4c1.7-.2 3.1-.4 3.1-.5zm-15.2 3c.1 0-.2-.6-.7-1.4l-.9-1.4-1.2 1.6c-1.8 2.4-1.6 3.1.7 2.1 1-.5 2-.9 2.1-.9z"/><path class="st3" d="M222.8 61.6l1.2.1c-5 6.4-13.3 17.3-13.8 17.8-.7.7-3.7 5.3-8.1 12.4-.5.9-.6.6-.7-1.5 0-3.4 2.3-8.1 6.8-13.6l3.4-4.2-3.1 2.7c-1.7 1.5-4.6 4.2-6.4 6-2.7 2.7-3.4 3.2-3.8 2.5-1-1.6-.5 2.4.5 4.8 1.4 3.2.3 2.4-1.3-1-1-2.1-1.2-3-.8-4 .3-.8 2.8-3 5.9-5.3 6.9-5 18.7-14.9 20.2-16.7z"/><path d="M221.1 65.5c.2-.2 4-5.1 6.5-8.4-.1.2-3.4 4.6-7.3 9.8l.8-1.4zm-12.6-21.8c.1 0 .1 0 0 0 .1 0 0 0 0 0zm.1 0c.1.7-.2 6.5-.5 7.4 0-.1-.1-.2-.1-.1 0-.7.4-3 .4-3.8 0-.8 0-2.6.1-3.3 0-.1.1-.1.1-.2zm-.1 0s.1 0 0 0c0 .1 0 .1-.1.2.1-.1.1-.2.1-.2zm0 0c0-.1 0-.1 0 0z"/><path d="M206.4 44.9c.3-.3 1.8-1.3 2.1-1.3v.2c-.3.4-1.4 1.3-1.8 1.4-1.3.7-2.1 1-2.6 1.1l.2-.2s-.1-.1-.2-.1c.5-.2 1.3-.6 2.3-1.1z"/><path class="st3" d="M208.5 43.9c-.1.7-.1 2.5-.1 3.3 0 .8-.4 3.1-.4 3.8-.1.1-.1.6-.1 1.4 0 .8-.1 2-.1 2.5-.2.1-.7.4-1.3.8-.6.4-1.7 1.3-2.2 1.7 0-.2 0-.5-.1-.7-.3-.7-.4-.7-.8-.1-.2.4-.4.9-.4 1.1l-.3.6h-2.5c.1-.2.1-.3 0-.3-.3-.1.3-1.5 1.4-3l1.9-2.8-1.5.1c-1.3.1-1.5-.1-1.8-2.1-.1-.5-.1-.9-.2-1 .5-.2 3.2-2.1 4-2.8.4-.1 1.3-.5 2.6-1.1.5-.1 1.6-1 1.9-1.4z"/><path d="M208.1 51.2c.1.5-.1 2.9-.3 3.7h-.1c0-.5.1-1.7.1-2.5s0-1.3.1-1.4c.1.2.1.3.2.2-.1 0 0-.1 0 0 0-.1 0-.1 0 0z"/><path d="M208.1 51.1s-.1.1 0 0c-.1.2-.1.1-.1-.1 0-.1 0 0 .1.1zm-.3 3.8c.1 0 0 0 0 0 0 .1 0 0 0 0zm0 0s0 .1 0 0c0 .1-.1.1-.1.2.1-.1.1-.1.1-.2zm0 .2c0-.1 0-.1 0 0 0 0 0 .1 0 0z"/><path d="M207.8 54.9v.2c-.5.6-2.8 2.3-3.5 2.6 0-.1.1-.2.1-.3.5-.5 1.6-1.3 2.2-1.7.4-.4 1-.7 1.2-.8zm-3.5-8.7s0 .1-.2.2c-.5.1-.5 0 0-.3.1 0 .2.1.2.1zm-.1 10.5c.1.2.1.5.1.7-.2.1-.3.3-.3.3 0 .1.1 0 .2 0 0 .1 0 .1-.1.1-.4.5-1.2.4-1.2-.1 0-.2.2-.7.4-1.1.5-.6.7-.6.9.1z"/><path d="M204.3 57.4c0 .1 0 .2-.1.3-.1 0-.2.1-.2 0 .1 0 .2-.1.3-.3zm-.2-11.3c-.5.3-.5.5 0 .3-.8.7-3.5 2.6-4 2.8h-.1c-.4.1 2.8-2.2 3.3-2.7.3-.2.6-.3.8-.4zm-6.5 30.6s0 .1-.1.2c-.1-1.2-.4-2.2-1.7 1.3-1.7 4.5-2.3 5.9-2.3 5.1 0-.8 7.5-21.1 9.2-24.9l.3-.6c0 .4-1.3 5.3-2.7 10-1.2 4.3-2.3 8.5-2.6 9.4v-.3c0-.1-.1-.2-.1-.2zm0 0c0-.1 0-.1 0 0z"/><path class="st3" d="M200.2 58.4h2.5c-1.6 3.8-9.2 24.1-9.2 24.9 0 .8.6-.6 2.3-5.1 1.3-3.5 1.6-2.4 1.7-1.3-.1.2-.1.4-.3.7 0 .4-.2 1.6-.1 2-.2 0-.5 1-1 2.4-.9 3.1-3.3 6.4-4.5 6.4-.7 0-6.9-4.8-8.3-6.5-1.5-1.8-.5-2.1 1.2-.4L186 83l-.2-3.3c-.3-3.9.7-4.6 1.3-1l.3 2.3.7-2c1.3-4 4.5-9.6 8.6-15 1.8-2.7 3.2-4.8 3.5-5.6zm-.1 35.9c2 1.3 2.3 2.1 1.3 3.9-.6 1.2-.8 1.2-5 0-.2 0-.3-.1-.5-.2l.3-1.1c1.8.7 1.9.6.9-.9-.5-.9-.5-1.2.2-2 .8-.9 1-.8 2.8.3zm.8 14.9l-1.8 2.3c-1 1.2-2.1 2.8-2.4 3.6-.6 1.2-.9 1.3-3.6 1-.3 0-.6-.1-.8-.1l.1-.9c1 .2 1.1 0 .9-1.7-.2-1 0-2.5.3-3.3.5-1.2.9-1.5 2.3-1.5 1 0 2.5.2 3.4.3l1.6.3z"/><path class="st4" d="M200.7 104.3c.4 4.3 1 4-6.3 2.8-.8-.1-1.5-.2-2.4-.4l.1-1h.7c1.1 0 1.3-.2 1-1-.7-1.6-.4-3.6.6-4.4 1-.8 4.3-.9 5.3-.3.3.5.8 2.3 1 4.3zm-3.1.3c1.5-1.5 0-4.4-2-3.9-.6.2-1.3 1.4-1.2 1.7-.2.1-.3.8.2 1.8.6 1.2 2.1 1.4 3 .4z"/><path d="M200.2 49.2c-.1.1-.1.1 0 0-.1.1-.1.1 0 0-.1 0-.1 0 0 0z"/><path class="st5" d="M197.7 89.7c.6 1.1 1.1 2.1 1 2.2-.3.3-4.1-1.4-4.1-1.9 0-.2.4-.8 1-1.3.9-1 1-.9 2.1 1z"/><path d="M195.7 100.7c2-.5 3.5 2.4 2 3.9-.9 1-2.4.8-3-.4-.5-1-.4-1.7-.2-1.8 0 .4.1.4.3.3.1.2.1.5.2.9 1 1.5 2.2 1.6 2.6.1.5-1.6-.2-2.3-1.6-2-.4.1-.9.8-1.1 1-.1-.2-.2-.3-.3-.3-.2-.3.5-1.5 1.1-1.7zm2-23.8v.3c-.1.2-.1.3-.1.1V77c0-.1.1-.2.1-.2-.1-.1 0 0 0 .1z"/><path d="M197.6 77.2c0 .2.1.2.1-.1 0 .7-.4 2.3-.5 2.5 0-.1 0-.1-.1-.1 0-.4.1-1.5.1-2 .2-.3.2-.5.3-.7.1.2.1.3.1.4z"/><path class="st5" d="M195.9 101.7c1.4-.4 2.1.4 1.6 2-.4 1.4-1.6 1.4-2.6-.1 0-.4-.1-.7-.2-.9.3-.3.7-.9 1.2-1z"/><path d="M197.2 79.7s-.1 0-.1-.1c.1-.1.1 0 .1.1z"/><path class="st3" d="M196.2 96.9l-.3 1.1c-6.1-1.7-22.6-3.7-30.8-3.7-3.3 0-3.6-.1-4.1-1.4-.3-.8-.5-1.5-.5-1.7 0-.2 3.3-.2 7.2 0 4.8.2 6.1.1 3.8-.2-1.9-.2-5.5-.5-8.1-.5-4.3-.1-6.6-.7-6.6-1.9 0-.5 9.2-.4 17.9.2 7.4.5 15 1.6 19 2.8 2.2.6 2.7 2.1.8 2.2-1 0-1.1.1-.3.6.5.3.8.8.6 1.2-.1.4.5.9 1.4 1.3z"/><path class="st4" d="M193.1 88.4c2.4-2.8 3.5-3 1.5-.2-.7.9-1.5 1.7-2 1.7-.6 0-.5-.4.5-1.5z"/><path class="st3" d="M193.9 117.7c1.3.3 1.5 1.1.7 2.3-.4.6-1.2.6-5.4-.1-2.7-.5-5.4-.9-6-.8-.9 0 8.8 2.6 10.2 2.7.4 0 .6.7.6 1.5 0 1.3-.1 1.4-1.4 1.1-12.8-3.4-25-4.9-39.8-4.9-4 0-7.5.1-10.7.3l-.1-1.1c1.3-.1 2.6-.7 2.3-1.4-.2-.5.2-1 .9-1.3.7-.3.9-.5.6-.6-.4 0-.5-.3-.4-.6.2-.3-.3-.6-1-.6-.8 0-1.5.4-1.7.8-.2.6-1.1.8-3.3.8-1.4 0-2.1 0-2.3.1l-.1-1.5c2-.2.7-.2-4.7 0-4.1.1-10.2.6-13.7 1.1-7.7 1-8.8 1-8.5.2.6-1.8 12.1-3.4 28.4-4 7-.3 10.9-.6 10.7-.9-.1-.3-1-1-2-1.6-1.6-1-2.6-1-9.7-.7-9.6.4-18.2 1.2-23.1 2.2-4 .8-5.3.6-3.4-.6 1.2-.7 1-.8-1.8-.6-1.7.1-3 0-3-.2 0-.7 19.2-2.8 28.4-3.1 9.2-.3 9.3-.3 12.1 1.1 1.6.8 3.6 2.3 4.5 3.4.9 1.1 1.6 1.7 1.6 1.5 0-1 3-3.6 5.7-4.9 2.8-1.4 2.8-1.4 12.3-1 5.3.2 11.9.7 14.8 1l5.3.6v3.6c0 3.2.1 3.6 1.1 3.7l-.1.9c-14.5-1.6-18.4-1.9-21.6-1.8-3.5.1-3.4.1 1.6.5 5.5.3 19.7 2.3 22 2.9zm-12.7 1.2c.6 0 .9-.1.7-.3-.2-.2-.6-.2-1 0-.5.2-.4.3.3.3zm-6.6-8.3c1.3 0 1.8-.1 1.2-.2-.6-.1-1.7-.1-2.4 0-.6.1-.1.2 1.2.2z"/><path d="M194.7 102.6c-.2.1-.3.1-.3-.3.1 0 .2.1.3.3z"/><path class="st4" d="M192.1 97.6c.4 0 .5 2.5.3 4.6l-1.9-.2v-.3c0-2.3-2-3.2-3.5-1.6-.8.8-.8 2.5-.3 3 0 .2.2.4.6.7.3.2.6.4.9.4l-.3 2c-2.5-.3-5-.6-7.6-.8l.2-2.2c.8.1 1.6-.4 2-1.5.4-1.1-.1-2.4-1.3-3.1-.2-.1-.4-.2-.6-.2l.2-2.1c1.7.2 3.2.3 4.3.4 3.8.5 6.8.9 7 .9z"/><path class="st4" d="M190.5 102l1.9.2c-.1.9-.2 1.8-.4 2.3-.4 1-.4 1.3.1 1.4l-.1 1c-1.3-.2-2.6-.4-3.9-.5l.3-2c1 .1 2-1 2.1-2.4z"/><path d="M190.5 101.7v.3c-.1 1.4-1.1 2.5-2.2 2.3-.3-.1-.6-.2-.9-.4-.4-.3-.6-.5-.6-.7.1.1.2.1.3.1.1 0 .2-.2.2-.5h.9c1.1.1 1.5-.2 1.6-1.1.1-.8-.2-1.4-.7-1.6-.9-.4-2.5.8-2.1 1.5.1.2.2.8.2 1.2-.4.1-.5.2-.5.4-.5-.5-.6-2.2.3-3 1.6-1.7 3.5-.8 3.5 1.5z"/><path class="st4" d="M189.4 87.9c1.7 1.4 1.5 1.7-.8 1.1-.6-.2-2.3-1.5-3.9-2.9l-2.9-2.7-2.3 2.2c-3.3 3.1-4 2.1-.9-1.2 1.4-1.5 2.7-2.7 2.9-2.7.5 0 1.8 1 7.9 6.2z"/><path class="st5" d="M189.1 100c.5.2.8.8.7 1.6-.1 1-.5 1.2-1.6 1.1h-.9c0-.4-.1-1.1-.2-1.2-.5-.7 1.1-1.9 2-1.5z"/><path d="M187.2 102.7c0 .3 0 .5-.2.5-.1 0-.2 0-.3-.1 0-.2.2-.3.5-.4z"/><path class="st5" d="M183.9 86.3c1.9 1.8 2 1.9.8 1.8-2.8-.1-5.3-.5-5.3-.8 0-.1.5-.9 1.2-1.6l1.2-1.4 2.1 2z"/><path d="M184.6 46.7c0 .5-.6 1.5-1.4 2.2l-.8.8v-.1l.6-.7c.6-.8 1.2-1.7 1.4-2.2 0-.1 0-.1.1-.2.1.1.2.1.2.1.1-.1 0-.2 0-.4-.2 0-.1.1-.1.5z"/><path d="M184.5 46.1c0 .2.1.3 0 .4 0 0-.1 0-.2-.1.1-.2.2-.3.2-.3z"/><path d="M184.5 46.1s-.1.1-.2.3c-.3-.3-.7-1.3-.7-1.8v-.1c.1.4.2.6.3.5.1-.1 0-.4 0-.9 0 0 0 .1.1.2 0 .4.4 1.3.5 1.8z"/><path class="st3" d="M184.3 46.5c0 .1 0 .1-.1.2-.2.5-.8 1.4-1.4 2.2l-.6.7c-.3-.1-1.2.8-1.8 1.2-.5.3-.9.5-1.1.7 1-6.2 1.2-8.9.9-8.5-.3.3-1.2 5.9-2.1 11.6l-1.8-.3c.1-.9.2-1.6.1-1.8-.2-.6.4-3.9 1.2-6 .2-.5-.1-.6-1.1-.5-.8.2-1.7 0-2.1-.4-.3-.3-.6-.5-.7-.4V45l1-1.5c.3-.6.5-1.1.5-1.1l1.1-1.1c.5-.5.8-.9.9-1.2.3-.3.8-.8 1.7-1.9.3-.3.6-1.2.7-1.5l1-.7c.7-.5 1.2-1.1 1.4-1.6 0 .6.1 2.2.1 2.7 0 .4.4 1.7.6 2.2v.3c0 .5.2 1.5.4 1.9v.5c0 .4.3 1.8.5 2.6v.1c0 .4.4 1.4.7 1.8z"/><path d="M183.9 44.2c.1.5.1.9 0 .9-.1.1-.2-.2-.3-.5 0-.5.1-.6.3-.4z"/><path d="M183.9 44.2c-.1-.2-.2-.1-.3.4-.2-.8-.5-2.2-.5-2.6v-.5c.1.1.1.2.2.1v-.2c0 .1.1.2.1.3.1.2.3 1.6.5 2.5zm-1-5.4c.1.3.4 1.9.4 2.5-.1-.2-.2-.2-.2.1-.2-.4-.4-1.4-.4-1.9v-.3c.1.3.2.2.1-.4.1.2.1.1.1-.3-.1.1-.1.2 0 .3z"/><path d="M183.3 41.3v.2c-.1.1-.1.1-.2-.1-.1-.3 0-.3.2-.1zm-1.9 57.4c1.2.7 1.7 1.9 1.3 3.1-.4 1.1-1.2 1.6-2 1.5-.4-.1-.9-.3-1.3-.7-.6-.6-1.1-1.3-1.1-1.7 0-.3.5-1 1.1-1.6.6-.6 1-.9 1.5-.8.1 0 .3.1.5.2zm.5 3.1c.8-1-.5-2.9-1.7-2.4-.9.3-1.2 2.1-.5 2.8.6.6 1.6.4 2.2-.4zm.8-63.3c0 .4 0 .5-.1.3.1.6.1.7-.1.4.1-.5.1-1 .2-.7z"/><path d="M182.7 38.5c-.1-.3-.1.2-.1.7-.2-.5-.6-1.8-.6-2.2 0-.5-.1-2.1-.1-2.7 0-.1.1-.2.1-.2.1.3.6 3.3.7 4.4zm-.4 11.1l-.6.6.6-.6zm-.6.6l.6-.5c0 .2-1.1.8-1.2 1.4-1 .4-1.6.6-1.8.6v-.2c.2-.2.6-.4 1.1-.7.6-.3 1.5-1.2 1.8-1.2l-.5.6z"/><path class="st5" d="M180.2 99.4c1.2-.5 2.5 1.4 1.7 2.4-.6.8-1.6.9-2.2.4-.7-.7-.3-2.4.5-2.8z"/><path d="M181.9 33.6c.1-.1.1.1.1.5-.1-.1-.1 0-.1.2-.2.5-.7 1.1-1.4 1.6l-1 .7c0-.2 0-.2-.1 0 0 .1-.1.2-.3.3h-.1l1.3-1.6c.8-.8 1.5-1.6 1.6-1.7z"/><path d="M181.9 34.3c0-.2 0-.3.1-.2 0 .1 0 .1-.1.2zm-.1 84.3c.2.2-.1.3-.7.3s-.7-.1-.3-.3c.4-.2.9-.1 1 0z"/><path class="st4" d="M181.1 96.3l-.2 2.1c-.5-.1-.9.2-1.5.8-.6.6-1.1 1.3-1.1 1.6 0 .3.5 1.1 1.1 1.7.4.4.9.6 1.3.7l-.2 2.2c-2.8-.2-5.5-.4-8-.6l.1-2.3c1.1 0 2-.9 2-2.3s-1-2.5-2.2-2.5l.1-2.1c2.9.3 5.9.5 8.6.7z"/><path d="M180.2 42.9c.3-.3 0 2.3-.9 8.5-.2.2-.2.2 0 .2-.3 2.1-.8 4.7-1.2 7.6-.3 1.6-.5 3-.7 4.1l-.1-.2-.7 2.3c.2-2.3.8-6.7 1.5-11.1.9-5.6 1.9-11.2 2.1-11.4z"/><path class="st3" d="M170 76.5l.8-2.7c1.1-3.6 1.5-2.3.7 2.2-.3 2-.4 3.8-.2 4.2.5.8.4 1.3 2.3-10.8.9-5.7 2-11.7 2.4-13.3.2-.6.3-1.3.4-1.8l1.8.3c-.7 4.4-1.3 8.8-1.5 11.1V67c.2 3.3 2.2 6.7 1.8 6.9.2-.2.7 1.3 1.3 3.2 1.2 3.4 1.2 3.4.2 4.9-1.4 2.1-5.1 5.5-6 5.5-.9 0-4-3.6-5.8-6.8-1.3-2.4-1.4-2.6-.6-4.2.8-1.7 1.8-4.1 2-5.1.1 0 .3-.2.4-.4.4-.6.5.1.3 2.5l-.3 3zm7.6-.4c.2-.2.2-.7 0-1.1-.2-.4-.3-.3-.3.3 0 .7.1 1 .3.8zm-1.6-3.3c.1-.5.1-1.4 0-1.9s-.2-.1-.2 1c0 1 .1 1.4.2.9zm-.5 4.4c.1-.5.1-1.4 0-1.9s-.2-.1-.2 1c0 1 .1 1.4.2.9z"/><path d="M179.4 36.6c.1-.1.2-.1 0 0l-.3.3c.2-.1.3-.2.3-.3z"/><path d="M179.1 36.9l.4-.3c-.1.3-.4 1.2-.7 1.5-.9 1.1-1.4 1.7-1.7 1.9.1-.1.1-.2 0-.3s-.1 0-.2 0c.1-.2 1-1.3 1.2-1.7.1-.2.7-.7 1-1.1zm.2 14.5v.2c-.2 0-.2 0 0-.2zM177.6 75c.2.4.1.9 0 1.1-.2.2-.3-.1-.3-.7 0-.7.2-.8.3-.4zm-1.1-29c1-.2 1.3-.1 1.1.5-.8 2.1-1.4 5.4-1.2 6 .1.2 0 .9-.1 1.8-.1.6-.2 1.2-.4 1.8-.4 1.6-1.5 7.6-2.4 13.3-1.9 12.1-1.8 11.6-2.3 10.8-.2-.4-.1-2.2.2-4.2.8-4.5.4-5.8-.7-2.2l-.8 2.7.3-3.3c.2-2.4.1-3.1-.3-2.5-.2.3-.3.4-.4.4.1-.3.1-.5 0-.5 0 0-.1.1-.1.2.1-.3.3-.7.5-1 .3-.3 1.5-3.9 2.7-7.9 3.6-12.2 3.4-11.1 2.1-13.9-.8-1.6-1.1-2.5-1.1-2.8.1 0 .3.1.7.4.5.3 1.5.5 2.2.4zm.8 17.2l.1.2c-.4 2-.6 3.1-.7 3.3v-1.2l.6-2.3z"/><path d="M177.2 39.8c.1 0 0 .2 0 .3-.5.5-.2-.2-.2-.2 0-.1.1-.1.2-.1z"/><path d="M176.9 39.9c.1 0-.3.7.2.2-.1.3-.5.8-.9 1.2l-1.1 1.1-.1.1 1-1.5c.3-.6.7-1 .9-1.1zm-.3 25.8v1.1c-.1.1-.1-.1 0-.7-.1-.1 0-.3 0-.4zm-.6 5.2c.1.5.1 1.4 0 1.9s-.2.1-.2-1c0-1 .1-1.4.2-.9zm-.2 39.5c.7.1.1.2-1.2.2s-1.8-.1-1.2-.2c.7-.2 1.8-.2 2.4 0zm-.3-35.1c.1.5.1 1.4 0 1.9s-.2.1-.2-1c0-1 .1-1.4.2-.9zm-.3-32.9s-.2.5-.5 1.1c-.4.5-.8 1.1-1 1.5.1-.4.4-1.3.8-1.7.3-.4.5-.7.6-.8l.1-.1zm-.1.1l.1-.1-.1.1z"/><path class="st5" d="M172.5 98.7c1.3 0 1.7.8 1.3 2.2-.2.6-.8 1.1-1.3 1.1-1 0-1.9-1.8-1.3-2.7.2-.3.8-.6 1.3-.6z"/><path d="M173.7 45v.2c-.1 0-.1 0-.1.1 0 0 0-.1.1-.3zm.9 55.3c0 1.4-1 2.3-2 2.3-.6 0-1.2-.3-1.6-.9-.8-1-.3-3.3.8-3.8.2-.1.5-.1.7-.1 1.1 0 2.1 1.1 2.1 2.5zm-.8.6c.4-1.4-.1-2.2-1.3-2.2-.6 0-1.1.3-1.3.6-.6 1 .3 2.7 1.3 2.7.6 0 1.2-.5 1.3-1.1z"/><path class="st4" d="M172.6 102.6l-.1 2.3c-2-.1-3.8-.2-5.4-.2H165v-2.2c.3 0 .6-.2 1.2-.5 1.1-.6 1.4-2.7.4-3.7-.4-.4-.9-.6-1.4-.6l.1-2.2 4.7.2c.8 0 1.7.1 2.5.1l-.1 2.1c-.2 0-.5.1-.7.1-1.1.4-1.6 2.8-.8 3.8.5.5 1.1.8 1.7.8zm-2.2-17.8c1.7 2.4 1.7 2.4.4 2.4-.8 0-1.5-.6-2.2-1.8-.5-1-1.4-2.4-2-3.1l-1-1.3-3.2 3.1c-2.1 2-3.6 3.1-4.5 3.1-.7 0-1.3-.1-1.3-.2s2-2 4.5-4.2l4.5-4 1.4 1.8c1.1.9 2.5 2.8 3.4 4.2z"/><path d="M169.5 70.7c.1 0 .1.2 0 .5-.1 0-.1 0-.1-.2v-.1c.1-.1.1-.2.1-.2z"/><path class="st5" d="M168.3 86.9c0 .2-1.6.3-3.5.3h-3.5l2.1-2.2c1.1-1.2 2.2-2.2 2.4-2.2.4 0 2.5 3.4 2.5 4.1z"/><path d="M166.6 98.3c1 1 .8 3.1-.4 3.7-.6.3-.9.5-1.2.5-.3 0-.6-.3-1.1-.8-.5-.5-.8-1-.8-1.5 0-.4.2-.9.5-1.5.4-.7 1-1 1.6-1 .5-.1 1 .1 1.4.6zm-2.5 2.8c1 1.2 2.8.2 2.6-1.5-.2-1.4-1.9-1.6-2.7-.3-.4.7-.4 1.2.1 1.8z"/><path class="st5" d="M166.7 99.6c.2 1.6-1.6 2.7-2.6 1.5-.5-.6-.5-1.1-.1-1.8.8-1.3 2.5-1.1 2.7.3z"/><path class="st4" d="M165.3 95.4l-.1 2.2c-.7 0-1.3.4-1.6 1-.3.6-.5 1.1-.5 1.5l-2.2-.1c0-.6.1-1.3.1-1.8v-3l4.3.2z"/><path class="st3" d="M162.9 74l2.4 3.5-1.8 1.9c-1 1.1-2.7 2.7-3.8 3.6-2 1.7-2 1.7-1.7.4.3-1.1.1-.9-.9.6-2.5 3.8-3.3 5.2-2.6 4.7.4-.3.8-.1 1 .4.2.4 1.2 1.5 2.4 2.2l2.1 1.4v4.2c0 6.6-.4 8.4-2.3 9.4-.9.5-2.3 1.6-3.3 2.4l-1.7 1.5-1.2-1.3c-.6-.7-2.1-1.7-3.2-2.3-2.3-1-2.2-.9-2.9-9.2l-.3-3.7 2.7-2.7c1.5-1.5 2.9-2.6 3.2-2.4.3.2-.4-1.1-1.4-2.7-2-3.1-2.5-3.8-2-2.3.2.5.2.8 0 .8-.4 0-6.9-6-7.1-6.6-.2-.6 4.2-7.6 4.8-7.7.2 0-.3 1.4-1.2 3.1-1.8 3.5-1.8 5.4-.2 6.5 1 .7 1.1.7.9-.8-.1-.9.4-3.4 1.1-5.6.9-2.7 1.4-5.7 1.6-9.2l.5-6.1c0 .2.1.2.2-.1.1-.4.8-6.3 1-8.8.2-.7.6-9.7.5-11.2.5.5.9.8 1.2 1 .5.3.9.5 1 .4.3-.4-.8-5.6-1.3-5.7-.3-.1-.3-.7.2-1.7.4-.8.9-3 1-4.8l.3-3.3-1.2 2.8c-1.8 4.2-2.4 5-2.9 4.2-.2-.3-.4-.4-.7 0 1.2-2.4 4.6-9.6 4.8-10.1.3-.5.7-.8 1-.7.1.1.2 0 .2-.3.8 2.2 4.1 10 4.6 11.1.4 1 .9 1.9 1.1 2.1-.2.2-.5.6-.7 1-.2.4-.9 1.5-1.3 2.2-.3.4-.8 1-1.3 1.9-1.4 2.1-1.5 2.6-1.1 4.2.3 1 1.2 8.2 2.2 15.9.9 7.7 1.9 14 2.2 13.8.2-.1.4-.7.4-1.3 0-.6.2-1.1.5-1.1s.5.2.5.4c0 .4 1.1 2.2 2.5 4.1zm-8.2 11.7c2-4.8 2.8-9 2.3-13-.3-2.9-.5-3.2-1.1-2.3-.4.5-.8 2.1-1.1 3.6-.2 1.4-.6 3.1-1 3.7-.5.9-.7-3-.9-17.3l-.1-18.4-.1 21.4c-.1 11.8 0 22.4.2 23.6l.4 2.2 1.4-3.5zm2 18.7c1.6-2.1 1.6-9.5 0-11.2-.6-.6-1.5-1.1-2-1.1s-1.2-.3-1.5-.6c-.4-.4-.7-.4-.9 0-.2.3-.8.6-1.4.6-.6 0-1.5.5-2.2 1.2-1 1.1-1.1 1.7-1 5.9.1 5 .3 5.4 3.7 7 .8.3 1.5.4 1.8.1.3-.3.9-.5 1.4-.5.6 0 1.5-.6 2.1-1.4zm-4.2-68.8c.3 4 .6 2.5.5-2.7-.1-4.1-.1-4.5-.4-2.3-.2 1.4-.2 3.7-.1 5zm-.4 5.7c.4.4.3.1-.2-.5-1.6-2-2.1-1.5-1.7 1.7.2 1.6-.1 9-.7 16.4-.9 11.5-1.2 13.9-2.1 15.8-1.1 2.2-1.1 2.4-.3 4.6.5 1.2 1.6 3.5 2.5 5.1.9 1.6 1.7 2.9 1.8 2.9.3 0-.3-44.9-.6-45.6-.5-1.2.2-1.4 1.3-.4z"/><path class="st4" d="M165 102.5v2.2h-4.7l.3-1.7c.1-.6.2-1.8.3-2.9l2.2.1c0 .5.3.9.8 1.5.5.5.8.8 1.1.8z"/><path d="M159.2 33c.1.1 0 .5-.3 1.1-.2.3-.8 1.3-1.3 1.9.2-.4 0-.3-.4.2.4-.7 1.1-1.8 1.3-2.2.2-.4.5-.8.7-1-.1.1 0 .1 0 0zm0-.2v.1s-.1 0-.1.1c-.3-.2-.7-1.1-1.1-2.1-.5-1.1-3.8-8.9-4.6-11.1 0-.1 0-.3-.1-.5.4.5 5.9 13.3 5.9 13.5z"/><path d="M159.2 33c0 .2-.1.2-.1.1s0-.1.1-.1zm-2.1 3.2c.4-.5.6-.6.4-.2-.4.5-.7.9-.7.9s.1-.3.3-.7zm0 36.5c.5 4-.3 8.2-2.3 13l-1.5 3.4-.4-2.2c-.2-1.2-.3-11.8-.2-23.6l.1-21.4.3 18.3c.2 14.2.4 18.1.9 17.3.3-.6.8-2.3 1-3.7.2-1.4.7-3 1.1-3.6.5-.7.6-.4 1 2.5z"/><path class="st5" d="M157.3 101.2c0 2.3-.4 2.4-2.3.4-1.8-1.9-1.9-3.1-.2-2.6.6.2 1.5.3 1.8.3.4 0 .7.7.7 1.9z"/><path d="M156.8 93.2c1.5 1.6 1.5 9.1 0 11.2-.6.8-1.5 1.4-2 1.4s-1.1.2-1.4.5c-.3.3-1.1.2-1.8-.1-3.4-1.6-3.6-2-3.7-7-.1-4.1 0-4.8 1-5.9.6-.7 1.6-1.2 2.2-1.2.6 0 1.2-.3 1.4-.6.3-.4.5-.4.9 0 .3.3 1 .6 1.5.6.4 0 1.3.5 1.9 1.1zm-1.8 8.4c1.8 2 2.3 1.9 2.3-.4 0-1.2-.3-1.9-.6-1.9-.4 0-1.2-.2-1.8-.3-1.7-.5-1.6.6.1 2.6zm.4-5c.9-1 1.3-1.9 1.1-2.5-.5-1.4-1-1.1-2.2 1.4l-1.1 2.3-.4-2.8c-.3-2.4-.5-2.8-1.4-2.5-1.2.3-1.2.3-.1 3.3.6 1.6 1.2 2.3 1.9 2.3.6 0 1.3-.5 2.2-1.5zm-1.2 8.7c.9-.5.9-.7.1-2.7-1.1-2.8-1.7-2.8-1.7.2 0 2.7.3 3.2 1.6 2.5zm-2.9-2.5c1.2-2.9.9-3.5-.8-1.4-1.1 1.4-1.4 2.1-1 2.6.8 1 .9.9 1.8-1.2zm.7-4c0-.2-.8-1.3-1.8-2.3l-1.8-1.9V97c0 2.3 0 2.3 1.8 2.3 1 0 1.8-.2 1.8-.5z"/><path class="st5" d="M156.5 94.1c.2.6-.2 1.5-1.1 2.5-.9.9-1.6 1.4-2.1 1.5v-.2l1.1-2.3c1.1-2.6 1.6-2.9 2.1-1.5zm-2.2 8.4c.8 2.1.8 2.2-.1 2.7-1.3.7-1.6.2-1.6-2.5 0-2.9.6-3 1.7-.2z"/><path d="M153.3 19.8c0 .3-.1.4-.2.3-.3-.2-.7.1-1 .7-.3.4-3.6 7.7-4.8 10.1-.1.2-.2.4-.4.7 0-.2 5-11.2 5.4-12 .7-1.4.7-1.4 1-.3-.2-.2-.1 0 0 .5z"/><path d="M153.2 19.2c0 .2.1.4.1.5-.1-.4-.2-.6-.1-.5z"/><path class="st5" d="M153.2 97.9v.2c-.8.1-1.3-.7-1.9-2.3-1.1-2.9-1.1-3 .1-3.3.9-.2 1.1.1 1.4 2.5l.4 2.9z"/><path d="M153 32.8c.1 5.3-.2 6.8-.5 2.7-.1-1.3-.1-3.6.1-5.1.3-2.1.3-1.6.4 2.4zm-1.2 8c.5.7.7.9.2.5-1.1-1-1.8-.8-1.3.3.3.8.8 45.6.6 45.6 0 0-.8-1.3-1.8-2.9-.9-1.6-2.1-3.9-2.5-5.1-.8-2.1-.8-2.3.3-4.6 1-2 1.3-4.4 2.1-15.8.6-7.4.9-14.8.7-16.4-.3-3.1.1-3.6 1.7-1.6zm.3-16.9l-.3 3.3c-.2 1.8-.6 4-1 4.8-.4.9-.5 1.6-.2 1.7.4.1 1.6 5.3 1.3 5.7 0 0-.5-.1-1-.4-.3-.2-.7-.5-1.2-1v-.2l-.1.1c-1.5-1.5-3.5-4.1-3.3-4.7 0 .3.3.4 1 .4.6 0-.8-.7-1-.4 0-.3.2-.7.6-1.5.1-.1.2-.3.4-.7.2-.3.4-.3.7 0 .5.8 1.1 0 2.9-4.2l1.2-2.9z"/><path class="st5" d="M150.5 101.4c1.7-2.1 2-1.6.8 1.4-.9 2.1-1 2.2-1.8 1.2-.4-.5-.1-1.2 1-2.6zm-.3-4.9c1 1 1.8 2.1 1.8 2.3 0 .2-.8.4-1.8.4-1.8 0-1.8 0-1.8-2.3v-2.3l1.8 1.9z"/><path d="M149.7 38c.1 1.6-.3 10.5-.5 11.2 0-.5.1-.9 0-1 0-.1-.1.3-.3 1-.1-.1-.1-.4-.1-.7.2-.6.7-9.4.9-10.5 0-.1 0-.1 0 0z"/><path d="M149.7 37.7v.2l-.1-.1.1-.1zm-.4 10.5v1c-.1.1-.2.1-.2 0 0-.7.1-1.1.2-1z"/><path d="M149 49.2c.1.1.1.1.2 0-.2 2.5-.9 8.4-1 8.8-.1.3-.1.3-.2.1l.2-2-.2 1.5v-.5c0-.5.2-2.4.5-4.3 0 .7.1.9.3.6.1-.4.1-1 0-1.4-.1-.1-.1-.2-.1-.1 0-1.1.2-2 .3-2.7z"/><path d="M148.7 52c.1.4.1 1 0 1.4-.1.4-.3.1-.3-.6.1-.3.1-.6.1-.9.1-.1.2 0 .2.1z"/><path d="M148.6 51.8c0 .3-.1.6-.1.9v-.1c0-.4 0-.7.1-.8zm-.4 4.3l-.2 2c0-.1-.1-.3-.1-.5l.3-1.5zm-1.9-23c.2-.3 1.6.4 1 .4-.7 0-1 0-1-.4z"/><path class="st4" d="M148.4 86.8c0 .2-.5.4-1.2.4s-2.5-1.2-4.2-2.8c-1.7-1.5-3.1-2.7-3.2-2.6s-1 1.3-2.1 2.7c-1.1 1.4-2.4 2.5-3 2.6-.6.1-1-.1-.9-.3.5-1.1 5.5-7.7 5.9-7.8.5 0 8.7 7.3 8.7 7.8z"/><path d="M146.9 31.6c.1-.3.3-.6.4-.7-.2.3-.3.6-.4.7z"/><path class="st3" d="M145.6 89.7c1.4-.2 1.5.3.3 1.4-.5.4-1.1 1.3-1.3 2-.3.7-.7 1.1-1 1-.3-.2-.3-.8 0-1.7.5-1.3.4-1.3-1.4-1.3-2.5 0-11.6 1.1-13.9 1.6-1.2.3.8.4 5.7.4 5.2-.1 7.6.1 7.8.5.2.4-2.2.7-7.8 1-4.4.2-10.7.7-13.9 1.2-3.2.4-6.2.6-6.7.5-.4-.2-1.3-.1-1.9.3-.9.5-1.1.4-1.1-.2 0-1 2.2-2.3 6.3-3.7l2.9-1-2.5.3c-1.4.2-4.3.9-6.5 1.7-2.2.7-4.1 1.2-4.2 1.1-.4-.4 3.3-2.4 6-3.4 4.6-1.6 9.8-2.5 17.7-2.8 4.3-.2 7.7-.2 7.5 0-.2.2-2.2.7-4.5 1.1l-4.1.7 7.6-.2c4.4-.2 8.4-.4 9-.5z"/><path d="M145.8 115.2c.4 0 .1.3-.6.6-.8.3-1.1.8-.9 1.3.3.8-1 1.4-2.3 1.4-.8 0-1.6-.1-1.9-.6-.2-.3-1.1-.9-2-1.3-.9-.4-1.3-.6-1-.7.2-.1 1-.1 2.3-.1 2.1 0 3.1-.3 3.3-.8.2-.5.9-.8 1.7-.8.8 0 1.2.2 1 .6-.1.1.1.4.4.4z"/><path class="st4" d="M143.4 96.7c.2.7.2 2.2.1 3.4-.1 1.9-.3 2.2-2.5 3l-2.4.9 2.9.3c1.9.2-.1.4-6 .7-4.9.2-12.2.8-16.3 1.2-13.5 1.5-14.2 1.5-13.4.9.4-.3 1.3-.6 1.8-.7.8-.1.9-.1.2-.3-1.3-.4-1.8-3.2-.7-4.8.8-1.2.8-1.3-.1-1-.7.2-.8.2-.4-.3 1.7-1.9 19.2-4.5 30.4-4.5 6-.1 6.1 0 6.4 1.2zm-3.2 5.8c.9 0 2.4-1.5 2.4-2.5 0-.9-1.4-2.5-2.3-2.4-1.8 0-2.7 2.1-1.6 3.8.4.6 1.1 1.1 1.5 1.1zm-5.4-1.4c.6-1.3.5-1.6-.6-2.4-1.3-1.1-2.5-.9-3.3.6-.4.7-.4 1.4 0 2.1 1 1.7 3.2 1.5 3.9-.3zm-8.1 0c.2-2.4-1.4-3.3-3.1-1.9-.9.8-1.1 1.3-.8 2.5.3 1.3.6 1.5 2 1.3 1.6-.2 1.8-.4 1.9-1.9zm-8.3 2c1.4-1.5.6-3.8-1.4-3.8-.8 0-2.3 1.5-2.3 2.5 0 .4.4 1.1.8 1.6 1.2 1.1 1.7 1 2.9-.3zm-2.8 2.2c.4 0 .2-.6-.7-1.4-1-1.1-1.3-1.7-1-2.9.2-.8.6-1.7 1-1.9.6-.5-3.3.1-4 .6-.2.2 0 .6.4.9 1 .7 1.2 2.8.5 4.4-.4.9-.3 1 1.3.7 1-.3 2.1-.4 2.5-.4zm-7.6-.7c1.6 1.7 4.2-.4 3.1-2.6-.8-1.5-2-1.8-2.9-.8-1 1-1 2.5-.2 3.4z"/><path class="st3" d="M142.1 118.5l.1 1.1c-7.1.4-13.1 1.2-21.3 2.9-3.5.7-7 1.5-7.9 1.7-1.1.3-1.4.2-1.2-.2.4-.8 3.8-1.8 12.1-3.7 9-2.1 9.2-2.6.7-2.2-4.9.2-7.3.1-7.5-.3-.2-.3-.3-.7-.1-.8.3-.4 11.3-1.9 17.4-2.4 1.2-.1 2.1-.2 2.6-.2l.1 1.5c-.3.1.1.3 1 .7.9.4 1.8 1 2 1.3.4.4 1.2.6 2 .6z"/><path d="M142.6 100.1c0 1-1.4 2.5-2.4 2.5-.4 0-1.1-.5-1.5-1.2-1.1-1.6-.2-3.7 1.6-3.8.9 0 2.3 1.6 2.3 2.5zm-1.3.9c1-.8.2-2.9-1.1-2.9-.9 0-1.5 1.3-1.1 2.5.3.9 1.3 1.1 2.2.4z"/><path class="st5" d="M140.2 98.2c1.3 0 2.2 2.1 1.1 2.9-.9.7-1.9.5-2.2-.4-.4-1.2.2-2.5 1.1-2.5zm3.4-11.4c0 .2-1.4.4-3.1.4-1.7 0-3.2-.1-3.2-.3 0-.5 2.4-4.1 2.7-4.1.6 0 3.6 3.5 3.6 4z"/><path class="st3" d="M137.6 75.1c1.2 2.4 1.2 2.8.5 3.8-1.7 2.6-2.5 1.3-3.9-6.1-.1-.6-.2-1.1-.4-1.5l1.3-.1c.1.2.1.3.1.2.1-.3.9 1 1.4 1.5.1.4.5 1.2 1 2.2z"/><path d="M136.6 72.3c.1.4.2.7 0 .6l-.1-.1c-.3-.8-.2-1 .1-.5z"/><path d="M129.5 49.4l.2-.2c.4.6.8 1.5.8 2 0 1.8 4.4 17.6 5.2 19 .3.4.7 1.5.9 2.1-.3-.5-.4-.3-.1.5-.4-.5-1.3-1.8-1.4-1.5 0 .1-.1 0-.1-.2-.4-1-1.6-5.2-2.9-10.3-1.6-6.1-3-11.5-3.1-11.9-.1-.5.1-.4.6.3 0 .1-.1.2-.1.2z"/><path class="st3" d="M135 71.1l-1.3.1c-.3-.9-.5-1.2-.6-.9-.3.6-.8 7.3-1.2 16.2-.1 1.2-.9.8-1.6-.8-.4-.8-1.3-3.2-1.9-5.2-.6-2-1.4-3.7-1.6-3.7-.3 0-.6.7-.8 1.7-.2.9-.7 2-1.2 2.5-.8.8-.6 1.1 1.7 3.3 3.2 3.2 2.9 4.2-.4 1.3l-2.6-2.2-2.9 2.7c-1.6 1.5-3.2 2.6-3.5 2.4-.3-.1-.9 0-1.2.4-.3.3-.8.4-1 .2-.2-.2.2-.8.8-1.3 1.7-1.3 8.1-6.9 8.6-7.6.4-.6.5-1 .2-1.2.1-.1.1-.2.2-.3.6-1.1 2.6-5.4 2.8-4.8.2.4.5 1.5.8 2.3.6 1.7 1.1 2 .8.5-.1-.5-.8-5.9-1.6-11.9-1.3-10.4-1.8-14.2-2.1-14.6.3-.1.2-.5.1-1.2-.2-.7-.5-3.5-.7-6.2-.3-4.5-.4-4.7-.8-2.7-.2 1.2-.3 2.7-.2 3.4.3 1.3-.6 4-1.3 4-.2 0-.5-.6-.6-1.2-.1-.3-.1-.5-.1-.7.2-.2.5-.9.6-1 .2-.2.2-.7 0-1.1-.1-.1-.1-.2-.2-.3.3-.6.8-2.2.7-2.5-.1-.2-.1-.3-.2-.3.2-.4.8-2 .7-2.5.3-.6.6-1.8.9-2.9.1-.3.1-.5.1-.7.3.5 1 1.4 1.3 1.8.3.3 1.2 1.4 1.6 1.8 0 .2.2.6.5.9.5.7 1.4 1.7 1.6 1.7-.1.2.2.7.8 1.3.6.8 1.5 1.8 1.8 2.1-.2.1-.3.6-.3 1.3-.5 1.3-1.7 2.9-2.1 3.5-.5-.7-.8-.8-.6-.3.1.5 1.5 5.8 3.1 11.9 1.4 5.6 2.5 9.8 2.9 10.8zm-4.6 6.9c.1-.7.1-1.7 0-2.2-.1-.5-.2 0-.2 1.2-.1 1.3 0 1.7.2 1zm-.5-4.6c.3-2.6-3.4-29.8-4-29.2-.2.1.7 7.1 1.8 15.4s2.1 14.5 2.2 13.8z"/><path d="M134.3 98.7c1 .9 1.1 1.2.6 2.4-.8 1.8-3 2-3.8.3-.4-.7-.4-1.4 0-2.1.7-1.5 1.8-1.8 3.2-.6zm-.3 2.6c.8-1.3.6-2-.4-2.3-1.3-.4-2.1.1-2.1 1.3.1 1.7 1.7 2.4 2.5 1z"/><path class="st5" d="M133.6 99c1 .3 1.1 1.1.4 2.3-.8 1.4-2.4.7-2.4-1 0-1.2.7-1.8 2-1.3z"/><path d="M132.3 44.5c.3.3.3 1-.1 1.8-1.5 1.7-2.2 2.6-2.6 3 .4-.6 1.6-2.2 2.1-3.5 0-.7.1-1.2.3-1.3.1.1.2.1.1 0 .1-.1.1-.1.2 0z"/><path d="M132.1 44.4c.1.2.1.1 0 0zm0 0c-.4-.3-1.2-1.4-1.9-2.1-.5-.6-.8-1.2-.8-1.3.1 0 .6.4 1.1 1.1 1.1 1.3 1.5 2 1.6 2.3zm-1.8 31.4c.1.5.1 1.5 0 2.2-.1.7-.2.3-.2-.9s.1-1.8.2-1.3zm-4.4-31.7c.6-.6 4.3 26.6 4 29.2-.1.8-1.1-5.5-2.2-13.8s-1.9-15.2-1.8-15.4zm3.8 5.1c-.1.1-.1.2-.2.2l.2-.2zm-.2-8.3c0 .1 0 .1 0 0 0 .1 0 .1 0 0zm0 0c0 .1 0 .1 0 0-.2 0-1.1-1-1.7-1.7-.3-.3-.5-.7-.5-.9.1.1.2.2.3.2 0 0 0-.2-.2-.4.1-.1.5.3.8.8 1 1.4 1.3 1.9 1.3 2zm-.3 36c.3 1.5-.2 1.1-.8-.5-.3-.8-.7-1.9-.8-2.3-.2-.6-2.2 3.7-2.8 4.8-.1.1-.2.3-.2.3-.1-.1-.1-.1-.2-.1.8-2.6 2.6-13.4 1.8-20-.4-3.7-.8-8.1-.7-8.6h.1c.3.5.8 4.3 2.1 14.6.7 5.9 1.4 11.3 1.5 11.8z"/><path d="M127.5 38.2c.2.2.2.4.2.4s-.1-.1-.3-.2c0-.1 0-.2.1-.2-.1 0 0 0 0 0z"/><path d="M127.5 38.2s-.1 0 0 0c-.1 0-.1.1-.1.2-.5-.4-1.3-1.5-1.6-1.8-.3-.3-1-1.3-1.3-1.8v-.2c.4.3 1.4 1.5 1.8 1.9.3.3.9 1.2 1.2 1.7zm-3.8 61c1.7-1.5 3.3-.5 3.1 1.9-.1 1.5-.4 1.8-1.9 1.9-1.5.2-1.7 0-2-1.3-.3-1.2-.2-1.8.8-2.5zm2.5 1.8c.2-1.6-1.3-2.2-2.4-1.1-1.1 1.2-.5 2.7 1 2.5.8-.1 1.3-.6 1.4-1.4z"/><path class="st5" d="M123.8 100c1.1-1.2 2.6-.5 2.4 1.1-.1.8-.6 1.3-1.3 1.4-1.5.2-2.2-1.4-1.1-2.5zm1.2-14.1c.7.9 1.2 1.6 1.1 1.6 0 0-1.5.2-3.2.5l-3.1.4 1-1.4c.5-.8 1.4-1.7 2-2 .9-.5 1.2-.4 2.2.9z"/><path d="M125.6 49.2c.2.7.2 1.1-.1 1.2 0-.1-.1-.1-.1 0v.1c-.3 0-1-.4-2.1-1.1-1.3-.8-1.7-1.5-1.6-2.6 0-.4 0-.7.1-.9 0 .1 0 .1.1 0 0 .1.1.3.1.7.1.7.4 1.2.6 1.2.7 0 1.6-2.8 1.3-4-.2-.7-.1-2.2.2-3.4.4-2 .5-1.8.8 2.7.2 2.6.5 5.4.7 6.1z"/><path d="M125.5 50.4h-.1v-.1s.1 0 .1.1zm-1.3-15.8c.3-.4.4-.4.3 0l-.1-.1s0 .1.1.3c0 .2-.1.4-.1.7-.3 1.2-.6 2.4-.9 2.9-.2-.4-.3-.3-.3.1v-.3c0-.6.7-3.1 1-3.6z"/><path d="M124.6 34.6v.2c-.1-.2-.1-.3-.1-.3-.1 0 0 0 .1.1zm-.3 44.5c.1 0 .2.1.2.1-.3.6-.4.5-.2-.1zm-.8-40.7c.1.4-.5 2-.7 2.5 0 0-.1 0-.1.1 0-.2.4-1.7.5-2.2v-.2c0 .2.2.1.3-.2z"/><path d="M123.5 38.4c-.2.3-.3.4-.3.1.1-.5.2-.6.3-.1 0-.1 0 0 0 0z"/><path class="st3" d="M122.6 79.3c.4.4.6.8.4 1-.6.6-3.8-2.8-8.1-8.3-2.2-2.8-4.1-5.1-4.2-5s.9 3.3 2.1 7.3c2.5 7.9 2.7 9.3 1.5 10-.7.4-.8.9-.5 2.3l.3 1.8-1.3-1.3c-.7-.7-2-3.3-2.9-5.9-1.9-5.4-2.5-8-1.7-6.8.3.4.6.6.6.4 0-.6-5.8-15.6-6.1-15.6-.2-.5-.4-.8-.5-1 0-.5-.6-2.1-1.9-5.5-1.2-3-2.3-5.1-2.4-4.7-.1.3.1 1.3.5 2.2.6 1.2.6 1.9.2 3.2l-.5 1.6-.4-1.9-.1-.4c-.1-2.5-.6-7.7-.7-8.6.3.3 2.2 1.4 2.5 1.4.9.6 5.4 3.7 6 3.9 0 .2-.1.9-.1 1.9 0 1.1.1 2.8.2 3.9-.1-.2-.3-.3-.4-.3-.3 0-1.1-.4-1.6-1-1.2-1.1 4.3 7.2 8.2 12.5 3.1 4.1 9.8 12 10.9 12.9zm-11.2 2.8c.1-.1-.3-1.6-.9-3.3-.6-1.7-1.2-3-1.3-2.9-.1.1.3 1.6.9 3.3.6 1.7 1.2 3 1.3 2.9z"/><path d="M123 41.1c.1.3-.4 1.8-.7 2.5-.1 0-.1.1-.1.3-.2.2.5-1.8.5-2.4 0-.3 0-.4.1-.5l.1-.1c0-.1 0 0 .1.2zm-.3-.2c.1-.1.1-.1 0 0 .1 0 .1 0 0 0 .1 0 0 0 0 0z"/><path d="M122.5 43.8c.2.4.1.9 0 1.1-.1.1-.4.8-.6 1 0-.2-.1-.2-.1 0v-.1l.4-1.6v-.3s.1-.1.1-.3c.1 0 .1.1.2.2zm-.3 0c0-.2.1-.3.1-.3 0 .2-.1.3-.1.3zm-.5 2.1c0-.2.1-.2 0 0 .1 0 0 0 0 0zM117 99.3c1.9 0 2.8 2.4 1.4 3.8-1.3 1.3-1.8 1.3-2.8.2-.4-.5-.8-1.2-.8-1.6 0-.9 1.4-2.4 2.2-2.4zm-1.2 3.5c1 1.2 2.8.1 2.6-1.5-.2-1.4-1.9-1.6-2.7-.3-.5.7-.4 1.1.1 1.8z"/><path class="st5" d="M118.3 101.3c.2 1.6-1.6 2.7-2.6 1.5-.5-.6-.5-1.1-.1-1.8.8-1.3 2.5-1.2 2.7.3z"/><path d="M114.9 103.9c.8.8 1.1 1.4.7 1.4-.4 0-1.5.2-2.4.4-1.6.3-1.7.3-1.3-.7.7-1.6.5-3.7-.5-4.4-.5-.4-.7-.8-.4-.9.8-.5 4.7-1 4-.6-.3.3-.8 1.1-1 1.9-.3 1.2-.1 1.8.9 2.9z"/><path class="st3" d="M111.2 87.1c1.2 1.3 2 2.5 1.8 2.7-.2.2-1.2-.6-2.2-1.8-2-2.4-1.8-2.5-4.3 1.9-.8 1.3-1.5 2.1-1.6 1.8-.1-.3.3-1.3.8-2.2l1-1.5-1.8-1.3c-1-.7-2.5-2.5-3.4-4-1.5-2.5-3.2-3.9-4.5-3.4-.3.1-1.2-.7-2-1.9-.8-1.1-5.2-5.9-9.7-10.5-4.2-4.3-7.9-8.1-8.7-8.9.1 0 .4.1.7.1.5 0 1.6.3 2.3.4 0 .1.2.2.6.2.3 0 .9.2 1.5.4.1.1.3.2.5.2s.3.1.2 0c.6 0 1.5.6 1.9 1.3 1.2 2 1 2.7-.5 1.6-5.9-4 8.6 8.4 17.9 15.3 3.9 2.9 6.9 5.5 7 6.1.3.7 1.3 2.2 2.5 3.5z"/><path d="M110.5 78.8c.6 1.7 1 3.2.9 3.3-.1.1-.7-1.2-1.3-2.9-.6-1.7-1.1-3.2-.9-3.3.1-.1.7 1.2 1.3 2.9zm.6 23.3c1.1 2.2-1.4 4.3-3.1 2.6-.9-.9-.8-2.4.2-3.4.9-1 2.2-.7 2.9.8zm-.6 1.1c.1-.8-.2-1.4-.7-1.6-1.2-.5-2 .6-1.6 2 .4 1.5 2 1.3 2.3-.4z"/><path class="st5" d="M110.2 89.1c.5.8.8 1.4.7 1.4-.1 0-1.1.4-2.1.8-2.3 1-2.5.3-.7-2.1l1.2-1.6.9 1.5zm-.4 12.5c.5.2.8.8.7 1.6-.2 1.6-1.8 1.9-2.3.4-.5-1.4.4-2.4 1.6-2z"/><path d="M105.7 49.8c.1 1 .3 5.3.2 6.1 0-.3-.1-.5-.2-.8-.1-1-.2-2.8-.2-3.9 0-1 0-1.6.1-1.9.1 0 .1 0 .1-.1-.1.2 0 .4 0 .6zm.1 6.1c-.1.3-.1 0-.2-.8.2.3.2.5.2.8z"/><path d="M105.6 49.4c0 .1 0 .1 0 0-.1 0 0 0 0 0zm0 0s-.1 0 0 0c-.7-.1-5.2-3.2-6.1-3.8-.2.1-2.1-1-2.5-1.4v-.1c.4 0 8.3 4.9 8.6 5.3zm-5.1 3.5c1.4 3.3 2 5 1.9 5.5-.2-.3-.2-.2-.1.1-.1 0-.3-.2-.5-.4-.3-.3-1.3-1-2.3-1.6-1.5-.9-1.8-1.3-1.9-3.1v-.1c.1.6.2 1 .2.8v-1.3l.1.4.4 1.9.5-1.6c.4-1.2.4-2-.2-3.2-.4-.8-.6-1.8-.5-2.2.1-.2 1.2 1.9 2.4 4.8z"/><path d="M102.4 58.4c0 .1 0 .1-.1.1 0-.3 0-.4.1-.1zm-4.6-5.6c0 .7.1 1.2 0 1.3 0 .2-.1-.2-.2-.8l-.1-2 .3 1.5z"/><path d="M97.8 52.8l-.3-1.5.1 2c-.2-1.4-.6-4.3-.6-5 0-.9-.1-3.7 0-4.2l.1.1c.1.9.6 6.1.7 8.6zm-.8-8.7zm0 0c0-.1 0-.1 0 0zM82.6 59.3h-.2.2zm0 0h-.2c-.1 0-.3-.1-.5-.2V59c.3 0 .6.2.7.3z"/><path d="M81.8 59.1c.2.1.4.1.5.2-.3-.1-.5-.1-.5-.2zm-1.5-.5c-.1 0-.3-.1-.5-.2 0 0 .1-.1.2-.1.3-.1 1.2.2 1.9.5-.1 0-.1.1 0 .1-.7 0-1.3-.2-1.6-.3-.4 0-.6 0-.6-.1.3.1.6.1.6.1z"/><path d="M80.3 58.6s-.2 0-.5-.1l.1-.1c.1.1.3.2.4.2zm-.5-.2c0 .1-.1.1 0 0-.8-.1-1.9-.4-2.3-.4-.3 0-.5 0-.7-.1l-.1-.1.1-.1c.3 0 2.1.5 3 .7zm-3-.4c-.1 0-.1 0 0 0-.1 0-.1 0 0 0l-.1-.1s0 .1.1.1zm-.2-.1c.1 0 .1.1 0 0 .1.1 0 0 0 0zm.1 0c-.1 0-.1 0 0 0z"/></g></svg>